# xmcd
#
# Track frame offsets:
#	150
#	36000
#	49425
#	52275
#	58350
#	63075
#	73425
#	162450
#	181725
#	184350
#	195225
#	204450
#	236775
#	247350
#
# Disc length: 3514 seconds
#
# Revision: 0
# Processed by: cddbd v1.5.2PL0 Copyright (c) Steve Scherf et al.
# Submitted via: EasyCDDAExtractor 16.0.6.1
#
DISCID=e30db80e
DTITLE=Φιρφιρής Διονύσιος π.-χορός - Άγιον Όρος 1000 χρόνια 10
DYEAR=2012
DGENRE=Βυζ. Εκκλησιαστική
TTITLE0=Αγρ. Τιμίου Πρ.-Θού Κύριε [δ', λέγετος, τρίσημος]
TTITLE1=Αγρ. Τιμίου Πρ.-Στιχηρόν ιδιόμελον [δ', μέλος στιχηραρικόν]
TTITLE2=Αγρ. Τιμίου Πρ.-Πολυέλεος (δούλοι Κύριον)[πλ. α']
TTITLE3=Αγρ. Τιμίου Πρ.-Δόξα (ταις του Σου Προδρόμου)
TTITLE4=Αγρ. Τιμίου Πρ.-Ταις της Θεοτόκου
TTITLE5=Αγρ. Τιμίου Πρ.-Στιχηρόν ιδιόμελον [β']
TTITLE6=Αγρ. Τιμίου Πρ.-Δοξολογία αργή [α']
TTITLE7=Αγρ. Τιμίου Πρ.-Β' Στάση Τυπικών [βαρύς]
TTITLE8=Αγρ. Τιμίου Πρ.-Μακαρισμοί [δ']
TTITLE9=Αγρ. Τιμίου Πρ.-Απολυτίκια
TTITLE10=Αγρ. Τιμίου Πρ.-Τρισάγιον [β']
TTITLE11=Αγρ. Τιμίου Πρ.-Δόξα σοι Κύριε (ευαγγέλιον)
TTITLE12=Αγρ. Τιμίου Πρ.-Χερουβικός ύμνος [πλ. β']
TTITLE13=Αγρ. Τιμίου Πρ.-Αγαπήσω σε [πλ. β', αργό]
EXTD=
EXTT0=
EXTT1=
EXTT2=
EXTT3=
EXTT4=
EXTT5=
EXTT6=
EXTT7=
EXTT8=
EXTT9=
EXTT10=
EXTT11=
EXTT12=
EXTT13=
PLAYORDER=
